<svg width="22" height="30" viewBox="0 0 22 30" fill="none" xmlns="http://www.w3.org/2000/svg">
<path fill-rule="evenodd" clip-rule="evenodd" d="M21 10.6666C21.5523 10.6666 22 11.1143 22 11.6666V28.3333C22 28.8856 21.5523 29.3333 21 29.3333C20.4477 29.3333 20 28.8856 20 28.3333V11.6666C20 11.1143 20.4477 10.6666 21 10.6666Z" fill="#6366F1"/>
<path fill-rule="evenodd" clip-rule="evenodd" d="M11 0.666626C11.5523 0.666626 12 1.11434 12 1.66663V28.3333C12 28.8856 11.5523 29.3333 11 29.3333C10.4477 29.3333 10 28.8856 10 28.3333V1.66663C10 1.11434 10.4477 0.666626 11 0.666626Z" fill="#6366F1"/>
<path fill-rule="evenodd" clip-rule="evenodd" d="M1 17.3334C1.55228 17.3334 2 17.7811 2 18.3334V28.3334C2 28.8857 1.55228 29.3334 1 29.3334C0.447715 29.3334 0 28.8857 0 28.3334V18.3334C0 17.7811 0.447715 17.3334 1 17.3334Z" fill="#6366F1"/>
</svg>
