<svg width="22" height="40" viewBox="0 0 22 40" fill="none" xmlns="http://www.w3.org/2000/svg">
<path fill-rule="evenodd" clip-rule="evenodd" d="M11 0.666626C11.5523 0.666626 12 1.11434 12 1.66663V38.3333C12 38.8856 11.5523 39.3333 11 39.3333C10.4477 39.3333 10 38.8856 10 38.3333V1.66663C10 1.11434 10.4477 0.666626 11 0.666626Z" fill="#6366F1"/>
<path fill-rule="evenodd" clip-rule="evenodd" d="M2.00144 9.33481C3.28294 8.05331 5.02102 7.33337 6.83333 7.33337H19.3333C19.8856 7.33337 20.3333 7.78109 20.3333 8.33337C20.3333 8.88566 19.8856 9.33337 19.3333 9.33337H6.83333C5.55145 9.33337 4.32208 9.8426 3.41565 10.749C2.50922 11.6555 2 12.8848 2 14.1667C2 15.4486 2.50922 16.678 3.41565 17.5844C4.32208 18.4908 5.55145 19 6.83333 19H15.1667C16.979 19 18.7171 19.72 19.9986 21.0015C21.2801 22.283 22 24.0211 22 25.8334C22 27.6457 21.2801 29.3838 19.9986 30.6653C18.7171 31.9468 16.979 32.6667 15.1667 32.6667H1C0.447715 32.6667 0 32.219 0 31.6667C0 31.1144 0.447715 30.6667 1 30.6667H15.1667C16.4485 30.6667 17.6779 30.1575 18.5844 29.2511C19.4908 28.3446 20 27.1153 20 25.8334C20 24.5515 19.4908 23.3221 18.5844 22.4157C17.6779 21.5093 16.4485 21 15.1667 21H6.83333C5.02102 21 3.28294 20.2801 2.00144 18.9986C0.719939 17.7171 0 15.979 0 14.1667C0 12.3544 0.719939 10.6163 2.00144 9.33481Z" fill="#6366F1"/>
</svg>
