<svg width="23" height="19" viewBox="0 0 23 19" fill="none" xmlns="http://www.w3.org/2000/svg">
<path d="M7.43547 18.5836C15.8191 18.5836 20.406 11.6361 20.406 5.61308C20.406 5.41777 20.4016 5.21811 20.3929 5.0228C21.2852 4.37752 22.0552 3.57826 22.6668 2.66256C21.8358 3.03228 20.9535 3.27375 20.05 3.3787C21.0013 2.80849 21.7136 1.91272 22.0548 0.857436C21.1599 1.3878 20.1812 1.76192 19.1607 1.96377C18.4731 1.23317 17.564 0.749426 16.5739 0.587328C15.5838 0.425231 14.5679 0.593809 13.6832 1.067C12.7986 1.54019 12.0944 2.29164 11.6796 3.20516C11.2649 4.11869 11.1626 5.14341 11.3886 6.12089C9.57652 6.02996 7.80378 5.55923 6.1853 4.73922C4.56683 3.91922 3.13874 2.76824 1.99363 1.36091C1.41162 2.36436 1.23352 3.55177 1.49553 4.68181C1.75755 5.81185 2.44001 6.79973 3.40422 7.44468C2.68035 7.42169 1.97234 7.2268 1.33868 6.8761V6.93252C1.33803 7.98557 1.70208 9.00634 2.36894 9.82133C3.0358 10.6363 3.96432 11.1952 4.99666 11.403C4.32611 11.5865 3.62234 11.6132 2.93981 11.4811C3.23111 12.3868 3.79789 13.1788 4.56103 13.7468C5.32418 14.3149 6.24562 14.6304 7.19675 14.6495C5.58201 15.9179 3.58733 16.6059 1.53399 16.6027C1.16985 16.6021 0.806061 16.5798 0.44458 16.5358C2.53056 17.8741 4.95711 18.5849 7.43547 18.5836Z" fill="#EDEDED"/>
</svg>
