<svg xmlns="http://www.w3.org/2000/svg" width="110" height="63" viewBox="0 0 110 63"><defs><style>.a{fill:#ccc;}.b{fill:#007594;}.c{fill:#ff7300;}.d{fill:none;}</style></defs><g transform="translate(3.946 3.946)"><path class="a" d="M143.093,49.183l-24.509,7.454L105.6,70.185h34.734l12.98-13.548Zm-6.542,17.762H115.6l8.228-8.588,14.783-4.5,6.167,4.5Z" transform="translate(-50.722 -25.751)"/><path class="b" d="M44.383,80.422H46.3v.361H44.716v2.812h-.333Z" transform="translate(-44.382 -28.992)"/><path class="b" d="M48.247,80.422h.993a1.117,1.117,0,0,1,.406.07.879.879,0,0,1,.314.2.911.911,0,0,1,.2.322,1.207,1.207,0,0,1,.071.427,1.148,1.148,0,0,1-.084.456.929.929,0,0,1-.228.328.955.955,0,0,1-.334.2,1.231,1.231,0,0,1-.4.066h-.611v1.1h-.328Zm.957,1.7a.791.791,0,0,0,.285-.049.655.655,0,0,0,.22-.138.627.627,0,0,0,.142-.215.743.743,0,0,0,.051-.281.755.755,0,0,0-.05-.283.561.561,0,0,0-.139-.206.585.585,0,0,0-.216-.124.858.858,0,0,0-.278-.043h-.644v1.338Z" transform="translate(-44.805 -28.992)"/><path class="b" d="M52.662,83.652a.858.858,0,0,1-.214-.025.935.935,0,0,1-.208-.085l.107-.32a.6.6,0,0,0,.151.063.653.653,0,0,0,.156.017.2.2,0,0,0,.11-.033.374.374,0,0,0,.1-.1.9.9,0,0,0,.089-.148c.029-.058.057-.123.085-.194l-1.111-2.41h.371l.91,2.041.831-2.041h.345l-1.044,2.54a2.6,2.6,0,0,1-.145.295,1.211,1.211,0,0,1-.155.216.583.583,0,0,1-.173.134.454.454,0,0,1-.2.045" transform="translate(-45.206 -28.992)"/><path class="b" d="M56.26,83.594V80.422H58.4v3.173h-.331V80.789H56.591v2.806Z" transform="translate(-45.68 -28.992)"/><path class="b" d="M61.439,80.422h.3l1.205,3.173H62.58l-.3-.827H60.887l-.316.827h-.339Zm.713,1.993-.566-1.534-.572,1.534Z" transform="translate(-46.114 -28.992)"/><path class="b" d="M67.145,83.595V80.422h1.844v.336H67.463v.919h.9a1.657,1.657,0,0,1,.377.04.64.64,0,0,1,.483.433,1.369,1.369,0,0,1,.068.47,1.263,1.263,0,0,1-.075.466.786.786,0,0,1-.2.3.745.745,0,0,1-.293.161,1.258,1.258,0,0,1-.35.048Zm1.173-.345a1.482,1.482,0,0,0,.259-.021.475.475,0,0,0,.208-.089.448.448,0,0,0,.137-.2.963.963,0,0,0,.05-.34.809.809,0,0,0-.052-.316.417.417,0,0,0-.14-.179.5.5,0,0,0-.208-.08,1.657,1.657,0,0,0-.255-.018h-.842V83.25Z" transform="translate(-46.799 -28.992)"/><path class="b" d="M71.792,83.652a.856.856,0,0,1-.213-.025.94.94,0,0,1-.208-.085l.107-.32a.6.6,0,0,0,.151.063.655.655,0,0,0,.157.017.2.2,0,0,0,.11-.033.386.386,0,0,0,.1-.1.9.9,0,0,0,.089-.148c.028-.058.057-.123.085-.194l-1.111-2.41h.371l.911,2.041.83-2.041h.345l-1.044,2.54a2.609,2.609,0,0,1-.144.295,1.308,1.308,0,0,1-.155.216.6.6,0,0,1-.174.134.451.451,0,0,1-.2.045" transform="translate(-47.214 -28.992)"/><path class="b" d="M75.418,83.227a.741.741,0,0,0,.211-.465,5.652,5.652,0,0,0,.061-.925V80.421h1.848l-.006,2.806h.2v1.009h-.328v-.641H75.539v.641h-.331V83.227Zm.613-1.379a5.562,5.562,0,0,1-.051.8,2.041,2.041,0,0,1-.16.576H77.2V80.789h-1.17Z" transform="translate(-47.655 -28.992)"/><path class="b" d="M79.513,83.277h.216v-2.54h-.216v-.315h.756v.315h-.208v2.54h.194v.317h-.743Z" transform="translate(-48.114 -28.992)"/><path class="b" d="M82.025,80.422h1.127a1.156,1.156,0,0,1,.322.045.8.8,0,0,1,.28.143.723.723,0,0,1,.2.251.844.844,0,0,1,.073.368.928.928,0,0,1-.031.248.893.893,0,0,1-.083.2.776.776,0,0,1-.119.156,1,1,0,0,1-.14.119,1.244,1.244,0,0,1,.207.118.73.73,0,0,1,.166.161.74.74,0,0,1,.11.213.879.879,0,0,1,.04.276.932.932,0,0,1-.07.369.765.765,0,0,1-.2.275.863.863,0,0,1-.306.171,1.238,1.238,0,0,1-.4.06H82.025Zm1.08,1.39a.769.769,0,0,0,.233-.034.52.52,0,0,0,.183-.1.482.482,0,0,0,.119-.169.6.6,0,0,0,.043-.235.565.565,0,0,0-.035-.2.4.4,0,0,0-.106-.155.5.5,0,0,0-.175-.1.772.772,0,0,0-.242-.035h-.776v1.033Zm.109,1.427a.848.848,0,0,0,.256-.037.547.547,0,0,0,.194-.107.48.48,0,0,0,.124-.174.592.592,0,0,0,.044-.235.454.454,0,0,0-.171-.38.813.813,0,0,0-.505-.134h-.8v1.066Z" transform="translate(-48.379 -28.992)"/><path class="b" d="M86.138,80.422H88.06v.361H86.471v1.03H87.9v.367H86.471v1.053h1.61v.363H86.138Z" transform="translate(-48.816 -28.992)"/><path class="b" d="M91.851,83.595V80.789h-1.37v2.182a.94.94,0,0,1-.045.312.5.5,0,0,1-.339.329.993.993,0,0,1-.274.04v-.365a.418.418,0,0,0,.152-.033.282.282,0,0,0,.1-.077.311.311,0,0,0,.054-.118.629.629,0,0,0,.018-.153V80.422h2.033l0,3.173Z" transform="translate(-49.206 -28.992)"/><path class="b" d="M94.254,80.421l.337,0v1.1h.615a1.2,1.2,0,0,1,.4.066.92.92,0,0,1,.559.525,1.145,1.145,0,0,1,.084.454,1.207,1.207,0,0,1-.071.427.913.913,0,0,1-.2.322.882.882,0,0,1-.315.2,1.128,1.128,0,0,1-.409.07h-1Zm.337,1.468v1.338h.642a.871.871,0,0,0,.281-.043.585.585,0,0,0,.216-.124.553.553,0,0,0,.137-.2.772.772,0,0,0,.048-.284.735.735,0,0,0-.05-.278.613.613,0,0,0-.363-.355.794.794,0,0,0-.287-.049Z" transform="translate(-49.677 -28.992)"/><path class="b" d="M98.133,80.422h.325v1.39h1.475v-1.39h.331v3.173h-.331V82.189H98.458v1.406h-.325Z" transform="translate(-50.089 -28.992)"/><path class="b" d="M102.307,80.422h.324v2.527l1.66-2.527h.264v3.173h-.33V81.127l-1.616,2.467h-.3Z" transform="translate(-50.532 -28.992)"/><path class="b" d="M107.438,81.972l-.981-1.55h.392l.786,1.267.789-1.267h.387l-.979,1.55,1.019,1.623h-.4l-.825-1.333-.828,1.333h-.383Z" transform="translate(-50.968 -28.992)"/><path class="b" d="M114.635,80.922l-.088.163c-.028.053-.054.1-.079.152h0c-.047.091-.092.175-.133.251s-.082.143-.122.2a1.17,1.17,0,0,1-.122.157.512.512,0,0,1-.135.1l1.174,1.634h-.4l-1.064-1.479-.284.018v1.461h-.331V80.415h.331v1.306h.172a.354.354,0,0,0,.227-.086.92.92,0,0,0,.206-.251l.2-.337.2-.337a.976.976,0,0,1,.223-.264.368.368,0,0,1,.223-.088.385.385,0,0,1,.192.057.754.754,0,0,1,.184.153l-.175.294a.389.389,0,0,0-.1-.092.17.17,0,0,0-.09-.027c-.068,0-.134.059-.2.176Z" transform="translate(-51.673 -28.985)"/><path class="b" d="M118.238,83.645a1.139,1.139,0,0,1-.549-.133,1.329,1.329,0,0,1-.424-.358,1.682,1.682,0,0,1-.273-.524,2.032,2.032,0,0,1-.1-.629,1.962,1.962,0,0,1,.045-.423,1.881,1.881,0,0,1,.127-.389,1.605,1.605,0,0,1,.2-.335,1.415,1.415,0,0,1,.27-.262,1.231,1.231,0,0,1,.329-.172,1.236,1.236,0,0,1,.759,0,1.252,1.252,0,0,1,.327.169,1.323,1.323,0,0,1,.268.26,1.679,1.679,0,0,1,.2.335,1.889,1.889,0,0,1,.127.388A2.113,2.113,0,0,1,119.6,82a2.023,2.023,0,0,1-.045.425,1.886,1.886,0,0,1-.129.387,1.613,1.613,0,0,1-.2.336,1.321,1.321,0,0,1-.27.263,1.266,1.266,0,0,1-.33.171,1.167,1.167,0,0,1-.381.061m.012-.37a.852.852,0,0,0,.405-.1,1.01,1.01,0,0,0,.319-.272,1.335,1.335,0,0,0,.208-.4,1.612,1.612,0,0,0,.075-.5,1.562,1.562,0,0,0-.077-.492,1.329,1.329,0,0,0-.213-.405,1.021,1.021,0,0,0-.322-.274.852.852,0,0,0-.407-.1.842.842,0,0,0-.405.1,1,1,0,0,0-.316.272,1.3,1.3,0,0,0-.206.4,1.658,1.658,0,0,0-.073.5,1.573,1.573,0,0,0,.076.494,1.313,1.313,0,0,0,.209.405,1,1,0,0,0,.32.273.843.843,0,0,0,.407.1" transform="translate(-52.08 -28.985)"/><path class="b" d="M121.6,80.422h.33l.937,1.691.947-1.691h.321v3.173H123.8V81.086l-.924,1.646h-.03l-.924-1.646v2.508H121.6Z" transform="translate(-52.579 -28.992)"/><path class="b" d="M126.219,83.594V80.422h2.145v3.173h-.331V80.789H126.55v2.806Z" transform="translate(-53.071 -28.992)"/><path class="b" d="M131.4,80.422h.3l1.205,3.173h-.362l-.3-.827h-1.389l-.316.827h-.339Zm.713,1.993-.566-1.534-.572,1.534Z" transform="translate(-53.491 -28.992)"/><path class="b" d="M134.794,80.422h.325v1.39h1.475v-1.39h.331v3.173h-.331V82.189h-1.475v1.406h-.325Z" transform="translate(-53.981 -28.992)"/><path class="b" d="M138.834,83.277h.216v-2.54h-.216v-.315h.756v.315h-.208v2.54h.194v.317h-.743Z" transform="translate(-54.354 -28.992)"/><path class="b" d="M141.344,80.334h.323v2.527l1.661-2.527h.263v3.174h-.33V81.039l-1.615,2.468h-.3Zm.788-.712a.4.4,0,0,0,.022.134.36.36,0,0,0,.064.118.347.347,0,0,0,.105.085.3.3,0,0,0,.14.032.28.28,0,0,0,.137-.034.314.314,0,0,0,.1-.086.4.4,0,0,0,.063-.118.39.39,0,0,0,.022-.129h.261a.824.824,0,0,1-.033.224.651.651,0,0,1-.105.209.547.547,0,0,1-.183.155.57.57,0,0,1-.271.061.546.546,0,0,1-.264-.06.569.569,0,0,1-.186-.153.626.626,0,0,1-.11-.208.757.757,0,0,1-.036-.227Z" transform="translate(-54.628 -28.904)"/><path class="b" d="M75.688,58.363h4.169l-5.837-8.889,4.511-4.948-2.586-2.376-5.835,6.4v-6.4H66.59V58.363h3.52v-4.6l1.486-1.63Z" transform="translate(-46.731 -25.118)"/><path class="b" d="M57.65,42.151l-4.874,8.106L47.9,42.151h-3.52V58.363H47.9V48.83l3.655,6.06h2.437l3.655-6.06v9.533h3.52V42.151Z" transform="translate(-44.382 -25.118)"/><path class="b" d="M95.459,46s-.487-3.825-6.377-3.851-5.767,4.821-5.767,4.821-.325,3.11,3.411,4.242,5.429,1.09,5.4,2.868S89.124,55.7,89.124,55.7a3.237,3.237,0,0,1-3.168-2.5l-3.493.619s.623,4.687,6.85,4.687,6.769-4.121,6.769-4.929-.119-3.93-4.63-4.874c-4.116-.862-4.306-1.4-4.409-2.266-.069-.564.564-1.559,2.758-1.478,2.517.093,2.6,1.966,2.6,1.966Z" transform="translate(-48.41 -25.117)"/><path class="b" d="M46.963,64.9a2.429,2.429,0,0,1,.842-.612,4.064,4.064,0,0,1,4.653,1.2l-.01-1.936A4.665,4.665,0,0,0,48.83,62.36a4.245,4.245,0,0,0-1.205.177,4.375,4.375,0,0,0-1.964,1.207,4.567,4.567,0,0,0-.683.944,4.841,4.841,0,0,0-.439,1.107,4.733,4.733,0,0,0-.156,1.219,5.071,5.071,0,0,0,.326,1.842,4.372,4.372,0,0,0,.915,1.458,4.187,4.187,0,0,0,1.413.962,4.632,4.632,0,0,0,1.818.348,6.82,6.82,0,0,0,3.6-.822V66.592H48.421v1.68h2.041v1.481s-.324.242-1.552.191a2.8,2.8,0,0,1-1.074-.225,2.59,2.59,0,0,1-.844-.621,2.831,2.831,0,0,1-.556-.943,3.484,3.484,0,0,1-.2-1.191,3.392,3.392,0,0,1,.189-1.143,2.763,2.763,0,0,1,.537-.921" transform="translate(-44.382 -27.146)"/><path class="b" d="M61.56,67.525a2.4,2.4,0,0,0,.555-.564,2.587,2.587,0,0,0,.354-.747,3.3,3.3,0,0,0,.126-.941,2.909,2.909,0,0,0-.226-1.182,2.378,2.378,0,0,0-.625-.857,2.733,2.733,0,0,0-.946-.521,3.789,3.789,0,0,0-1.18-.178H55.989v8.949h1.949V68.2H58.8l2.7,3.28h2.381l-3.038-3.569a3.039,3.039,0,0,0,.72-.389M60.533,65.9a1.059,1.059,0,0,1-.251.379,1.111,1.111,0,0,1-.406.247,1.631,1.631,0,0,1-.547.086h-1.39V64.167h1.37a1.4,1.4,0,0,1,.958.31,1.179,1.179,0,0,1,.352.934,1.327,1.327,0,0,1-.086.488" transform="translate(-45.651 -27.166)"/><path class="b" d="M74.2,64.643a4.6,4.6,0,0,0-.639-.933,4.064,4.064,0,0,0-4.179-1.182,4.047,4.047,0,0,0-1.02.47,4.179,4.179,0,0,0-.846.728,4.547,4.547,0,0,0-.647.943,4.943,4.943,0,0,0-.411,1.113,5.459,5.459,0,0,0,0,2.459,4.815,4.815,0,0,0,.4,1.1,4.632,4.632,0,0,0,.639.934,4,4,0,0,0,.841.721,3.95,3.95,0,0,0,1.017.463,4.043,4.043,0,0,0,1.165.165,3.963,3.963,0,0,0,1.159-.167,4.014,4.014,0,0,0,1.02-.47,4.056,4.056,0,0,0,.849-.73,4.7,4.7,0,0,0,.648-.943,4.831,4.831,0,0,0,.41-1.111,5.294,5.294,0,0,0,.143-1.239,5.153,5.153,0,0,0-.143-1.22,4.862,4.862,0,0,0-.407-1.1m-1.71,3.5a3.018,3.018,0,0,1-.432.924,2.168,2.168,0,0,1-.664.622,1.636,1.636,0,0,1-.851.228,1.618,1.618,0,0,1-.854-.235,2.25,2.25,0,0,1-.671-.633,3.112,3.112,0,0,1-.442-.937,4.066,4.066,0,0,1-.158-1.149,4.01,4.01,0,0,1,.153-1.127,3.021,3.021,0,0,1,.431-.921,2.154,2.154,0,0,1,.667-.621,1.7,1.7,0,0,1,1.709,0,2.156,2.156,0,0,1,.669.632,3.2,3.2,0,0,1,.437.936,4.28,4.28,0,0,1,0,2.279" transform="translate(-46.707 -27.146)"/><path class="b" d="M96.7,64.3a2.615,2.615,0,0,0-.634-.947,2.835,2.835,0,0,0-1.01-.6,4,4,0,0,0-1.351-.212H90.108v8.949H92V68.611h1.512a4.59,4.59,0,0,0,1.333-.187,3.029,3.029,0,0,0,1.08-.57,2.686,2.686,0,0,0,.726-.962,3.26,3.26,0,0,0,.265-1.365,3.32,3.32,0,0,0-.22-1.23m-2.376,2.365a2.27,2.27,0,0,1-1.312.351H92V64.358h.989a4.627,4.627,0,0,1,.885.08,1.071,1.071,0,0,1,.7.67,1.723,1.723,0,0,1,.1.608,1.284,1.284,0,0,1-.348.946" transform="translate(-49.23 -27.166)"/><path class="b" d="M84.074,62.534h-.5v5.895a1.432,1.432,0,0,1-2.864,0V62.534h-2.25v5.125a5.371,5.371,0,0,0,.253,1.728,3.312,3.312,0,0,0,.729,1.243,2.977,2.977,0,0,0,1.156.747,4.866,4.866,0,0,0,3.065,0,3.008,3.008,0,0,0,1.165-.75,3.327,3.327,0,0,0,.738-1.259,5.525,5.525,0,0,0,.257-1.773v-5.06H84.074Z" transform="translate(-47.995 -27.165)"/><path class="c" d="M122.715,23.3,105.657,38.933V67.356h34.117V38.933ZM133,60.558H112.426V42.54l10.289-9.432L133,42.54Z" transform="translate(-50.728 -23.296)"/></g><rect class="d" width="110" height="63"/></svg>